<svg t="1743136775401" class="icon" viewBox="0 0 1024 1024" version="1.1" xmlns="http://www.w3.org/2000/svg" p-id="65875" width="200" height="200"><path d="M345.173333 88.96c127.573333-53.44 285.12-42.56 400.32 34.56-10.88 3.84-21.76 7.466667-32.533333 11.413333-48.426667-35.093333-109.973333-47.146667-168.32-53.226666-52.053333-1.173333-107.413333-2.986667-155.413333 20.586666-14.506667-5.013333-29.226667-9.386667-44.053334-13.333333z" fill="#EEA44F" p-id="65876"></path><path d="M237.44 132.48c24.533333-32.106667 69.013333-42.453333 107.733333-43.52 14.826667 3.946667 29.546667 8.32 44.053334 13.333333 20.8 10.026667 42.666667 19.306667 58.986666 36.266667a59.338667 59.338667 0 0 1-21.013333 26.453333c-31.04-14.826667-60.8-39.04-97.28-35.733333-27.413333-0.106667-49.92 18.026667-72 32.106667-4.48-3.306667-13.653333-9.92-18.24-13.226667-0.64-3.946667-1.706667-11.733333-2.24-15.68z" fill="#A23C0C" p-id="65877"></path><path d="M389.226667 102.293333c48-23.573333 103.36-21.76 155.413333-20.586666 58.346667 6.08 119.893333 18.133333 168.32 53.226666-7.146667 4.266667-21.653333 12.693333-28.906667 16.96 0.213333 12.053333 5.866667 29.866667 21.546667 27.2 29.973333-8.32 60.053333-34.346667 91.84-16.746666 0.533333 7.146667 1.493333 21.333333 2.026667 28.373333 1.813333-5.653333 5.546667-16.96 7.36-22.613333 9.6 8.64 19.306667 17.386667 29.013333 26.026666-0.426667 19.306667 4.373333 37.44 17.28 52.266667 53.973333 72.853333 85.12 159.893333 94.08 249.813333-28.266667-27.946667-61.546667-57.92-104.32-55.146666-36.48-3.413333-84.373333 11.093333-94.186667 50.56-10.56 54.72 51.2 88.213333 97.6 90.56 38.933333 5.76 74.026667-14.933333 100.693334-41.386667-2.026667 11.306667-3.946667 22.72-5.973334 34.133333-56.64 20.693333-115.52 34.346667-172.16 55.146667-49.813333 17.813333-104.853333 8.106667-154.026666 26.986667-6.826667 37.333333-5.973333 75.413333-8.533334 113.28-7.893333 23.573333-16.213333 47.573333-31.573333 67.52l-14.933333-2.56c42.773333-59.626667 30.08-138.133333 29.866666-207.146667 28.266667 1.173333 62.72-2.88 77.333334-30.826667-6.506667-26.986667-26.88-11.84-39.893334-0.853333-39.893333 16.64-80.64-4.693333-113.493333-26.346667-40.96 20.906667-97.173333 12.16-121.386667-29.333333-17.92 3.306667-22.293333 19.946667-10.986666 33.493333-10.453333-3.093333-19.626667-8.106667-27.626667-15.146666 9.6-15.04 18.453333-30.506667 27.413333-45.866667-9.173333-21.973333-26.56-38.506667-44.8-53.013333-6.293333 12.906667-9.386667 28.16-20.16 38.4l-6.933333-6.08c13.76-51.626667-38.08-82.773333-77.546667-100.693334 22.826667-6.186667 43.946667 6.186667 64.853334 13.76-15.04-34.56-33.813333-68.693333-37.44-106.986666-2.986667-33.386667 0.426667-67.093333-3.52-100.48-11.2-1.706667-22.4-2.88-33.706667-2.88 12.266667-11.093333 24.213333-22.506667 36.16-33.92 22.08-14.08 44.586667-32.213333 72-32.106667 36.48-3.306667 66.24 20.906667 97.28 35.733333 9.6-6.826667 16.64-15.68 21.013333-26.453333-16.32-16.96-38.186667-26.24-58.986666-36.266667m-55.68 146.88c-45.866667 16.64-52.48 86.4-9.493334 110.506667 37.973333 28.693333 98.56-2.773333 97.28-50.24 5.333333-43.093333-50.24-80.533333-87.786666-60.266667m366.613333 48.32c-46.4 23.146667-44.8 96.32 4.48 115.2 55.146667 29.333333 115.84-51.84 72.533333-97.6-17.6-22.933333-51.093333-30.613333-77.013333-17.6z" fill="#FDED78" p-id="65878"></path><path d="M745.493333 123.52c32.213333-15.573333 73.066667-12.053333 98.88 13.76 24.106667 22.72 30.826667 56.426667 37.546667 87.466667l-9.28 11.093333c-4.906667 2.666667-14.72 8-19.52 10.56-12.906667-14.826667-17.706667-32.96-17.28-52.266667-3.413333-21.866667-19.84-43.2-43.093333-44.8 4.693333 6.293333 9.386667 12.48 14.08 18.773334-1.813333 5.653333-5.546667 16.96-7.36 22.613333-0.533333-7.04-1.493333-21.226667-2.026667-28.373333-31.786667-17.6-61.866667 8.426667-91.84 16.746666-15.68 2.666667-21.333333-15.146667-21.546667-27.2 7.253333-4.266667 21.76-12.693333 28.906667-16.96 10.773333-3.946667 21.653333-7.573333 32.533333-11.413333z" fill="#A43D0D" p-id="65879"></path><path d="M239.68 148.16c4.586667 3.306667 13.76 9.92 18.24 13.226667-11.946667 11.413333-23.893333 22.826667-36.16 33.92-24.426667 21.546667-44.8 47.04-64.426667 72.96-64.32 91.413333-90.986667 208.213333-73.386666 318.613333 17.6 115.52 82.453333 224.32 179.093333 290.773333 80.853333 57.6 181.866667 86.826667 281.066667 78.506667 181.973333-10.773333 347.413333-149.973333 386.666666-328.426667 4.053333-17.493333 7.146667-35.093333 10.24-52.8 2.026667-11.413333 3.946667-22.826667 5.973334-34.133333 2.453333-14.826667 2.346667-29.76 0.213333-44.586667-8.96-89.92-40.106667-176.96-94.08-249.813333 4.8-2.56 14.613333-7.893333 19.52-10.56 67.946667 82.24 100.48 191.68 96.746667 297.813333-2.026667 149.866667-84.48 295.466667-210.666667 375.786667-103.253333 68.053333-234.346667 87.466667-354.026667 59.626667C259.84 934.293333 135.466667 824.106667 84.8 683.733333 10.026667 497.28 75.84 265.173333 239.68 148.16z" fill="#EFA951" p-id="65880"></path><path d="M157.333333 268.266667c19.626667-25.92 40-51.413333 64.426667-72.96 11.306667 0 22.506667 1.173333 33.706667 2.88 3.946667 33.386667 0.533333 67.093333 3.52 100.48 3.626667 38.293333 22.4 72.426667 37.44 106.986666-20.906667-7.573333-42.026667-19.946667-64.853334-13.76-25.386667 3.093333-50.773333 4.693333-76.16 7.04 0.533333-16.64 18.986667-23.146667 24.533334-37.44 4.693333-28.8 2.346667-58.026667-0.106667-86.826666-7.146667-3.52-14.613333-5.653333-22.506667-6.4z" fill="#FED975" p-id="65881"></path><path d="M333.546667 249.173333c37.546667-20.266667 93.12 17.173333 87.786666 60.266667 1.28 47.466667-59.306667 78.933333-97.28 50.24-42.986667-24.106667-36.373333-93.866667 9.493334-110.506667m1.92 0.64c-24.32 41.6 63.893333 60.8 61.44 13.226667-17.493333-12.906667-39.893333-19.306667-61.44-13.226667zM704.64 412.693333c-49.28-18.88-50.88-92.053333-4.48-115.2-3.946667 42.986667 60.266667 53.653333 77.013333 17.6 43.306667 45.76-17.386667 126.933333-72.533333 97.6z" fill="#1F1F1F" p-id="65882"></path><path d="M335.466667 249.813333c21.546667-6.08 43.946667 0.32 61.44 13.226667 2.453333 47.573333-85.76 28.373333-61.44-13.226667z" fill="#838385" p-id="65883"></path><path d="M83.946667 586.88c-17.6-110.4 9.066667-227.2 73.386666-318.613333 7.893333 0.746667 15.36 2.88 22.506667 6.4 2.453333 28.8 4.8 58.026667 0.106667 86.826666-5.546667 14.293333-24 20.8-24.533334 37.44-27.626667 15.146667-58.666667 41.92-43.946666 77.12 23.253333 51.733333 85.76 61.76 136.426666 60.053334-18.453333 5.12-37.226667 9.066667-55.893333 13.333333 18.346667 4.373333 37.333333 6.933333 55.146667 13.44 21.973333 27.84 35.626667 62.72 64.96 84.266667 18.88 16.533333 42.88 28.373333 56.96 49.706666 10.346667 35.093333-35.52 91.2 16.106666 107.093334 13.013333 44.8 58.24 80.746667 105.92 74.453333 26.88-7.04 50.026667-22.933333 68.693334-43.093333l14.933333 2.56c15.36-19.946667 23.68-43.946667 31.573333-67.52 84.693333 7.253333 167.253333-30.293333 234.666667-78.933334 29.546667-21.76 56.64-47.253333 89.813333-63.68-39.253333 178.453333-204.693333 317.653333-386.666666 328.426667-99.2 8.32-200.213333-20.906667-281.066667-78.506667C166.4 811.2 101.546667 702.4 83.946667 586.88z" fill="#FFCA73" p-id="65884"></path><path d="M700.16 297.493333c25.92-13.013333 59.413333-5.333333 77.013333 17.6-16.746667 36.053333-80.96 25.386667-77.013333-17.6z" fill="#7F7F83" p-id="65885"></path><path d="M155.413333 398.933333c25.386667-2.346667 50.773333-3.946667 76.16-7.04 39.466667 17.92 91.306667 49.066667 77.546667 100.693334-17.813333 17.706667-36.8 35.52-61.226667 43.52-50.666667 1.706667-113.173333-8.32-136.426666-60.053334-14.72-35.2 16.32-61.973333 43.946666-77.12m-11.946666 52.693334c-3.626667 65.173333 103.253333 79.36 130.56 25.493333-9.6-60.906667-100.053333-79.146667-130.56-25.493333z" fill="#F39E62" p-id="65886"></path><path d="M143.466667 451.626667c30.506667-53.653333 120.96-35.413333 130.56 25.493333-27.306667 53.866667-134.186667 39.68-130.56-25.493333z" fill="#ED8B3A" p-id="65887"></path><path d="M748.693333 491.626667c9.813333-39.466667 57.706667-53.973333 94.186667-50.56 42.773333-2.773333 76.053333 27.2 104.32 55.146666 2.133333 14.826667 2.24 29.76-0.213333 44.586667-26.666667 26.453333-61.76 47.146667-100.693334 41.386667-46.4-2.346667-108.16-35.84-97.6-90.56m54.186667-17.386667c-32.213333 20.266667-16.533333 59.733333 10.773333 75.84 29.546667 3.413333 62.72 7.466667 88.96-9.706667 0.96-18.24 8.853333-44.586667-10.453333-55.786666-25.28-19.626667-59.84-13.866667-89.28-10.346667z" fill="#F2A463" p-id="65888"></path><path d="M336.213333 460.266667c18.24 14.506667 35.626667 31.04 44.8 53.013333-8.96 15.36-17.813333 30.826667-27.413333 45.866667 8 7.04 17.173333 12.053333 27.626667 15.146666 14.72 14.293333 32.746667 23.786667 51.626666 31.146667-22.613333 63.36-61.226667 129.386667-47.68 198.506667-51.626667-15.893333-5.76-72-16.106666-107.093334-14.08-21.333333-38.08-33.173333-56.96-49.706666-29.333333-21.546667-42.986667-56.426667-64.96-84.266667-17.813333-6.506667-36.8-9.066667-55.146667-13.44 18.666667-4.266667 37.44-8.213333 55.893333-13.333333 24.426667-8 43.413333-25.813333 61.226667-43.52l6.933333 6.08c10.773333-10.24 13.866667-25.493333 20.16-38.4z" fill="#FED775" p-id="65889"></path><path d="M802.88 474.24c29.44-3.52 64-9.28 89.28 10.346667 19.306667 11.2 11.413333 37.546667 10.453333 55.786666-26.24 17.173333-59.413333 13.12-88.96 9.706667-27.306667-16.106667-42.986667-55.573333-10.773333-75.84z" fill="#EC963C" p-id="65890"></path><path d="M381.226667 574.293333c-11.306667-13.546667-6.933333-30.186667 10.986666-33.493333 24.213333 41.493333 80.426667 50.24 121.386667 29.333333 32.853333 21.653333 73.6 42.986667 113.493333 26.346667 13.013333-10.986667 33.386667-26.133333 39.893334 0.853333-14.613333 27.946667-49.066667 32-77.333334 30.826667 0.213333 69.013333 12.906667 147.52-29.866666 207.146667-18.666667 20.16-41.813333 36.053333-68.693334 43.093333-47.68 6.293333-92.906667-29.653333-105.92-74.453333-13.546667-69.12 25.066667-135.146667 47.68-198.506667-18.88-7.36-36.906667-16.853333-51.626666-31.146667m64 52.053334c-7.466667 25.92-19.626667 50.56-25.28 76.906666-8.96 11.306667-9.493333 26.133333-13.226667 39.466667-11.306667 23.253333-3.413333 48.106667 4.48 70.933333 14.933333 23.786667 39.68 44.48 69.226667 43.413334 28.16-2.346667 51.733333-20.053333 67.946666-42.453334 12.053333-20.48 16.746667-43.733333 20.8-66.88-0.106667-15.893333 3.093333-32.106667 0.426667-47.893333 1.066667-20.373333 1.92-40.746667-0.32-61.013333-5.333333-21.866667-32.96-19.626667-49.813333-24.64-1.6 26.026667-3.626667 51.946667-4.48 77.973333l-2.986667 2.026667a489.173333 489.173333 0 0 0-7.68 46.4l-0.746667 0.106666c-5.653333 17.066667-11.733333 34.133333-18.133333 50.986667-4.48 0-13.44-0.106667-17.92-0.106667 5.226667-14.293333 10.666667-28.586667 16.213333-42.773333 4.586667-16.64 8.213333-33.6 10.88-50.666667 2.88-27.093333 3.2-54.613333 9.28-81.28-16.533333-9.493333-53.013333-15.893333-58.666666 9.493334z" fill="#680000" p-id="65891"></path><path d="M768.853333 630.08c56.64-20.8 115.52-34.453333 172.16-55.146667-3.093333 17.706667-6.186667 35.306667-10.24 52.8-33.173333 16.426667-60.266667 41.92-89.813333 63.68-67.413333 48.64-149.973333 86.186667-234.666667 78.933334 2.56-37.866667 1.706667-75.946667 8.533334-113.28 49.173333-18.88 104.213333-9.173333 154.026666-26.986667z" fill="#FED875" p-id="65892"></path><path d="M445.226667 626.346667c5.653333-25.386667 42.133333-18.986667 58.666666-9.493334-6.08 26.666667-6.4 54.186667-9.28 81.28-9.066667-13.653333-18.026667-27.306667-27.093333-40.96a473.28 473.28 0 0 0-47.573333 46.08c5.653333-26.346667 17.813333-50.986667 25.28-76.906666z" fill="#F27967" p-id="65893"></path><path d="M519.466667 614.186667c16.853333 5.013333 44.48 2.773333 49.813333 24.64 2.24 20.266667 1.386667 40.64 0.32 61.013333-11.093333-15.253333-20.586667-31.466667-25.493333-49.813333-5.973333 16.533333-10.773333 35.093333-29.12 42.133333 0.853333-26.026667 2.88-51.946667 4.48-77.973333z" fill="#EF7463" p-id="65894"></path><path d="M514.986667 692.16c18.346667-7.04 23.146667-25.6 29.12-42.133333 4.906667 18.346667 14.4 34.56 25.493333 49.813333 2.666667 15.786667-0.533333 32-0.426667 47.893333-10.56-6.4-21.44-12.053333-32.32-17.706666-10.346667 5.013333-21.013333 9.386667-32.533333 10.56 1.813333-15.573333 4.373333-31.04 7.68-46.4l2.986667-2.026667z" fill="#E86446" p-id="65895"></path><path d="M419.946667 703.253333a473.28 473.28 0 0 1 47.573333-46.08c9.066667 13.653333 18.026667 27.306667 27.093333 40.96-2.666667 17.066667-6.293333 34.026667-10.88 50.666667-24.213333-12.8-52.053333-25.386667-77.013333-6.08 3.733333-13.333333 4.266667-28.16 13.226667-39.466667z" fill="#E76344" p-id="65896"></path><path d="M406.72 742.72c24.96-19.306667 52.8-6.72 77.013333 6.08-5.546667 14.186667-10.986667 28.48-16.213333 42.773333-21.653333-1.6-42.24 4.48-56.32 22.08-7.893333-22.826667-15.786667-47.68-4.48-70.933333z" fill="#E35529" p-id="65897"></path><path d="M504.32 740.586667c11.52-1.173333 22.186667-5.546667 32.533333-10.56 10.88 5.653333 21.76 11.306667 32.32 17.706666-4.053333 23.146667-8.746667 46.4-20.8 66.88-17.706667-15.253333-39.253333-24.96-62.933333-22.933333 6.4-16.853333 12.48-33.92 18.133333-50.986667l0.746667-0.106666z" fill="#E3572D" p-id="65898"></path><path d="M411.2 813.653333c14.08-17.6 34.666667-23.68 56.32-22.08 4.48 0 13.44 0.106667 17.92 0.106667 23.68-2.026667 45.226667 7.68 62.933333 22.933333-16.213333 22.4-39.786667 40.106667-67.946666 42.453334-29.546667 1.066667-54.293333-19.626667-69.226667-43.413334z" fill="#DF4B13" p-id="65899"></path></svg>