<svg width="251" height="294" viewBox="0 0 251 294" fill="none" xmlns="http://www.w3.org/2000/svg">
<path d="M196.384 108.43L191.19 103.236L125.543 168.883L59.8961 103.236L54.7022 108.43L120.349 174.077L54.7022 239.724L59.8961 244.918L125.543 179.271L191.19 244.918L196.384 239.724L130.737 174.077L196.384 108.43Z" fill="#A78BFA"/>
<path d="M125.543 168.883L191.19 103.236L196.384 108.43L130.737 174.077L196.384 239.724L191.19 244.918L125.543 179.271L59.8961 244.918L54.7022 239.724L120.349 174.077L54.7022 108.43L59.8961 103.236L125.543 168.883Z" fill="#C4B5FD"/>
<path d="M194.433 90.1451H56.6523C49.5706 90.1451 43.8271 95.8886 43.8271 102.97V245.043C43.8271 252.125 49.5706 257.868 56.6523 257.868H194.433C201.514 257.868 207.258 252.125 207.258 245.043V102.97C207.258 95.8886 201.514 90.1451 194.433 90.1451Z" stroke="#374151" stroke-width="4" stroke-linecap="round" stroke-linejoin="round"/>
<path d="M125.543 120.068V227.945M69.1047 166.112H181.98" stroke="#374151" stroke-width="4" stroke-linecap="round" stroke-linejoin="round"/>
<path d="M100.473 36.1848L125.543 63.0944L150.612 36.1848" stroke="#374151" stroke-width="4" stroke-linecap="round" stroke-linejoin="round"/>
<path d="M125.543 63.0944V90.1451" stroke="#374151" stroke-width="4" stroke-linecap="round" stroke-linejoin="round"/>
<path d="M171.552 90.1451H79.5337" stroke="#374151" stroke-width="4" stroke-linecap="round" stroke-linejoin="round"/>
</svg>